<?xml version="1.0" standalone="no"?>
<!DOCTYPE svg PUBLIC "-//W3C//DTD SVG 20010904//EN"
 "http://www.w3.org/TR/2001/REC-SVG-20010904/DTD/svg10.dtd">
<svg version="1.0" xmlns="http://www.w3.org/2000/svg"
 width="1612.000000pt" height="1612.000000pt" viewBox="0 0 1612.000000 1612.000000"
 preserveAspectRatio="xMidYMid meet">
<metadata>
Created by potrace 1.14, written by Peter Selinger 2001-2017
</metadata>
<g transform="translate(0.000000,1612.000000) scale(0.100000,-0.100000)"
fill="#000000" stroke="none">
<path d="M7588 16115 c-2 -2 -84 -6 -183 -10 -99 -3 -207 -8 -240 -10 -33 -2
-112 -6 -175 -10 -63 -4 -128 -8 -145 -10 -16 -2 -70 -7 -120 -10 -49 -3 -97
-8 -105 -10 -8 -2 -52 -6 -97 -10 -46 -3 -92 -8 -102 -10 -11 -2 -48 -6 -83
-10 -35 -3 -74 -7 -88 -10 -24 -4 -42 -7 -145 -20 -236 -31 -571 -97 -820
-161 -162 -41 -438 -127 -508 -157 -17 -8 -57 -25 -87 -37 -93 -38 -251 -119
-321 -166 -64 -42 -69 -48 -88 -107 -36 -113 -94 -373 -125 -562 -24 -147 -54
-356 -62 -435 -2 -25 -6 -58 -8 -75 -32 -219 -26 -806 10 -1060 2 -16 9 -71
14 -122 6 -51 13 -100 14 -110 2 -10 16 -85 31 -168 176 -977 634 -1887 1344
-2670 80 -88 365 -370 451 -445 40 -36 78 -70 84 -75 27 -26 280 -228 371
-296 294 -221 644 -442 970 -614 183 -96 204 -111 221 -152 22 -52 51 -176 64
-273 18 -127 18 -130 25 -200 3 -36 8 -85 10 -110 3 -25 7 -79 10 -120 3 -41
8 -97 10 -124 2 -27 7 -108 10 -180 4 -72 8 -160 10 -196 11 -197 22 -598 31
-1065 8 -449 11 -4813 3 -4826 -3 -5 -79 -12 -170 -14 -252 -7 -537 -23 -699
-39 -25 -3 -76 -8 -115 -11 -38 -3 -81 -8 -95 -10 -14 -2 -52 -6 -85 -10 -33
-3 -88 -10 -123 -16 -34 -5 -74 -11 -90 -13 -15 -2 -43 -6 -62 -10 -19 -3 -51
-8 -71 -10 -20 -3 -42 -8 -50 -10 -8 -3 -30 -7 -49 -10 -64 -10 -94 -17 -231
-51 -483 -121 -760 -286 -804 -480 -54 -238 240 -461 795 -601 122 -31 230
-54 374 -80 39 -7 372 -53 431 -59 33 -4 76 -8 95 -10 19 -3 62 -7 95 -9 33
-3 94 -7 135 -10 301 -24 522 -31 1015 -31 422 0 727 7 890 20 28 2 86 6 130
9 100 7 188 14 240 21 22 3 67 8 100 11 112 10 186 20 275 34 30 5 75 12 100
15 37 5 179 32 320 61 14 3 75 18 135 34 398 104 661 252 747 420 34 67 35
177 2 247 -70 146 -275 275 -594 375 -96 29 -301 81 -375 94 -22 4 -49 8 -60
11 -28 5 -123 22 -165 29 -19 3 -46 7 -60 9 -45 8 -164 24 -215 30 -27 3 -63
7 -80 10 -16 2 -59 7 -95 10 -36 3 -81 8 -100 10 -47 6 -126 13 -230 20 -47 3
-107 8 -135 10 -27 2 -111 7 -185 10 -74 4 -164 8 -200 10 -36 2 -81 4 -100 4
l-35 1 1 2088 c1 1805 6 2663 19 3067 8 228 15 425 20 505 3 47 7 135 10 195
7 140 13 235 20 305 3 30 7 91 10 135 3 44 7 91 10 105 2 14 6 57 10 95 3 39
10 97 15 130 5 33 12 78 15 100 17 113 29 165 58 260 29 94 58 120 258 235
324 186 554 327 714 439 33 23 71 49 85 59 14 9 68 48 120 86 842 621 1450
1356 1845 2231 103 228 263 686 291 835 3 14 8 34 11 45 4 11 8 25 9 30 1 6
16 78 34 160 31 150 66 350 76 435 3 25 7 55 9 67 2 12 7 57 10 100 4 43 9 89
11 103 10 81 19 303 19 485 0 205 -4 275 -30 470 -2 17 -7 55 -10 85 -4 30 -9
66 -11 80 -2 14 -13 84 -24 155 -11 72 -22 141 -24 155 -3 14 -9 52 -15 85
-11 65 -17 96 -25 135 -3 14 -8 39 -11 55 -3 17 -18 83 -32 148 -24 105 -31
123 -62 156 -225 237 -853 485 -1561 616 -14 3 -36 7 -50 10 -14 3 -68 12
-120 21 -52 8 -106 17 -120 19 -34 6 -234 33 -290 39 -25 3 -67 8 -95 11 -27
3 -68 7 -90 10 -60 7 -130 13 -225 21 -47 4 -98 8 -115 9 -16 2 -86 6 -155 10
-69 4 -154 9 -190 11 -79 5 -1207 13 -1212 9z m1012 -219 c161 -9 270 -16 330
-20 30 -3 96 -8 145 -11 50 -4 110 -9 135 -11 25 -2 74 -7 110 -9 36 -3 81 -7
100 -10 19 -2 82 -9 140 -15 58 -6 121 -13 140 -15 49 -6 107 -13 160 -20 25
-3 63 -8 85 -11 41 -5 102 -13 145 -19 14 -2 86 -13 160 -25 74 -11 146 -22
160 -25 14 -3 39 -8 55 -10 209 -36 526 -111 674 -161 383 -127 446 -255 188
-382 -109 -53 -355 -133 -486 -158 -12 -3 -52 -12 -88 -20 -140 -32 -540 -102
-687 -119 -28 -4 -52 -8 -56 -10 -3 -2 -39 -6 -80 -10 -41 -3 -82 -8 -90 -10
-8 -2 -80 -11 -160 -20 -80 -9 -158 -17 -175 -20 -16 -2 -59 -6 -95 -10 -36
-3 -81 -8 -100 -10 -19 -2 -78 -7 -130 -10 -52 -4 -106 -8 -120 -10 -14 -2
-72 -6 -130 -10 -58 -4 -127 -8 -155 -10 -307 -21 -861 -26 -1175 -11 -232 10
-223 10 -515 31 -78 6 -172 14 -225 20 -19 2 -73 7 -120 10 -47 4 -87 9 -90
10 -3 2 -41 6 -84 10 -85 7 -116 10 -266 30 -19 3 -55 7 -80 10 -25 4 -58 8
-75 11 -16 3 -48 7 -70 9 -22 3 -51 7 -65 9 -14 3 -43 8 -65 11 -23 3 -50 7
-62 9 -12 3 -43 8 -70 12 -26 3 -57 8 -68 10 -11 2 -33 7 -50 9 -507 90 -881
207 -988 311 -35 34 -39 43 -39 79 0 34 3 43 34 73 46 48 144 99 281 146 67
24 133 45 147 48 14 3 72 18 130 33 88 22 374 82 475 99 124 21 407 62 485 71
30 3 62 8 70 10 8 2 44 7 80 10 36 3 72 8 80 10 8 2 51 7 94 10 43 4 86 8 95
10 24 4 179 19 316 30 44 3 103 8 130 10 135 13 234 19 485 30 91 4 166 8 168
10 5 5 752 -3 862 -9z m3010 -935 c0 -4 9 -54 19 -112 10 -57 22 -126 25 -154
4 -27 9 -57 11 -65 2 -8 6 -37 10 -65 3 -27 8 -57 10 -65 2 -8 6 -40 10 -70 3
-30 7 -68 10 -85 6 -39 12 -86 20 -160 4 -33 8 -71 11 -85 23 -150 23 -516 0
-695 -2 -16 -7 -66 -11 -110 -4 -44 -8 -82 -10 -85 -1 -3 -6 -36 -10 -75 -4
-38 -8 -72 -10 -75 -2 -4 -6 -28 -10 -54 -3 -27 -7 -51 -9 -55 -2 -3 -7 -28
-11 -56 -10 -76 -81 -376 -119 -505 -92 -309 -173 -515 -322 -815 -62 -126
-118 -237 -123 -245 -6 -8 -47 -76 -92 -150 -70 -117 -230 -355 -274 -408 -8
-9 -41 -53 -75 -96 -33 -44 -84 -107 -113 -140 -29 -33 -72 -83 -96 -110 -172
-200 -495 -499 -731 -679 -41 -31 -80 -61 -87 -67 -31 -26 -217 -151 -348
-235 -144 -92 -408 -229 -580 -300 -226 -94 -435 -148 -570 -148 -275 0 -832
222 -1285 511 -76 48 -223 145 -235 155 -5 4 -41 31 -80 58 -78 57 -106 78
-215 165 -81 64 -87 69 -216 182 -119 103 -364 350 -475 477 -596 686 -985
1463 -1158 2312 -17 82 -32 162 -35 178 -33 217 -34 228 -51 400 -13 128 -19
288 -19 490 0 214 10 515 19 565 2 14 6 50 9 80 13 138 56 373 70 382 17 11
70 0 241 -54 88 -27 250 -76 360 -109 110 -32 214 -63 230 -69 36 -11 301 -77
365 -91 25 -6 61 -14 80 -18 57 -14 182 -40 220 -46 19 -3 42 -8 50 -10 8 -2
29 -7 45 -10 141 -25 214 -37 235 -40 14 -2 75 -11 135 -20 126 -19 149 -22
225 -30 30 -4 68 -9 84 -11 16 -3 54 -7 85 -9 60 -5 141 -14 181 -20 22 -3 71
-7 270 -20 402 -28 1246 -27 1581 0 24 2 87 6 139 10 52 4 113 8 135 10 122
12 163 16 195 20 19 2 60 7 90 10 30 4 66 8 80 10 14 2 93 13 175 25 127 17
226 33 400 64 28 5 352 73 385 81 249 58 724 198 835 245 18 8 250 91 285 102
17 6 40 -1 40 -11z"/>
<path d="M4999 13875 c-7 -7 6 -401 15 -450 2 -11 7 -51 11 -90 13 -138 46
-338 79 -490 136 -628 422 -1226 836 -1750 471 -596 1156 -1120 1807 -1381
269 -108 400 -129 539 -89 156 46 480 200 633 301 29 19 55 34 57 34 12 0 283
189 394 274 348 269 679 607 937 956 390 530 652 1119 783 1765 17 82 33 168
35 190 3 22 7 51 10 65 5 26 9 53 20 150 12 107 14 136 21 270 9 176 9 179 -7
218 -15 37 -18 37 -85 18 -90 -26 -403 -107 -431 -112 -16 -3 -46 -10 -68 -16
-22 -5 -47 -12 -55 -13 -8 -2 -71 -15 -140 -30 -174 -37 -493 -94 -615 -109
-27 -4 -57 -9 -65 -11 -8 -2 -37 -6 -65 -9 -27 -4 -66 -9 -85 -11 -35 -6 -55
-8 -165 -20 -33 -3 -73 -8 -90 -10 -16 -2 -66 -7 -110 -10 -44 -4 -95 -8 -114
-10 -31 -4 -153 -13 -281 -20 -399 -24 -1095 -24 -1435 -1 -27 2 -97 7 -155
10 -58 4 -121 9 -140 11 -19 3 -66 7 -105 10 -78 6 -167 14 -205 20 -14 2 -50
6 -80 10 -30 3 -72 8 -93 11 -40 6 -62 9 -152 19 -33 4 -62 8 -65 10 -3 2 -29
6 -59 10 -30 4 -63 9 -75 11 -12 2 -59 11 -106 19 -47 8 -95 16 -106 19 -12 2
-39 7 -59 10 -32 5 -246 49 -295 61 -8 2 -55 13 -105 24 -107 24 -335 82 -457
117 -90 25 -102 27 -109 19z"/>
</g>
</svg>
